<?xml version="1.0" encoding="utf-8"?>
<!-- Generator: Adobe Illustrator 16.0.0, SVG Export Plug-In . SVG Version: 6.00 Build 0)  -->
<!DOCTYPE svg PUBLIC "-//W3C//DTD SVG 1.1//EN" "http://www.w3.org/Graphics/SVG/1.1/DTD/svg11.dtd">
<svg version="1.1" id="Layer_1" xmlns="http://www.w3.org/2000/svg" xmlns:xlink="http://www.w3.org/1999/xlink" x="0px" y="0px"
	 width="2000px" height="2000px" viewBox="0 0 2000 2000" enable-background="new 0 0 2000 2000" xml:space="preserve">
<g>
	<g>
		<path fill="#244F5B" d="M316.375,859.357c0,0-1.943-2.918-3.89,8.752c-3.072,18.425-6.125,70.613-35.875,64.308
			c-18.397-3.9-25.541-23.127-18.586-39.021c0,0,27.104-60.014,27.229-60.296c-39.247-2.348-63.07,25.269-67.519,62.915
			c-2.652,22.442,1.957,46.814,10.897,67.421c3.151,7.266,33.616,56.311,43.98,50.55
			C272.639,1013.972,359.158,963.398,316.375,859.357z M270.209,1005.159c-8.628-5.358-29.843-36.667-33.547-45.205
			c-8.825-20.343-12.556-43.273-10.234-62.913c3.658-30.955,20.232-50.765,45.02-54.634c-7.993,17.698-21.398,47.387-21.398,47.387
			c-4.716,10.772-4.453,23.089,0.658,33.035c4.85,9.439,13.404,15.885,24.089,18.149c2.24,0.476,4.46,0.716,6.599,0.716
			c23.468,0,32.018-26.107,36.103-48.227C329.93,961.563,281.148,997.947,270.209,1005.159z"/>
		<path fill="#C32127" d="M353.001,1042.789c2.742-3.473,4.229-7.466,4.229-12.021c0-5.63-3.327-12.311-7.848-15.606
			c-0.963-0.702-1.985-1.108-3.004-1.313c-4.902-0.935-9.571,3.269-4.086,7.906c2.744,2.304,4.786,4.698,4.786,8.519
			c0,2.712-0.963,5.223-2.801,7.468c-1.139,1.431-2.656,2.772-4.463,3.968c-10.708,7.323-32.356,11.176-58.934,11.176
			c-27.366,0-49.511-4.086-59.868-11.815c-1.283-0.936-2.363-1.955-3.268-3.006c-2.012-2.334-3.063-4.929-3.063-7.79
			c0-2.306,0.789-4.434,2.247-6.215c2.275-2.772,7.353-5.718,1.779-9.51c-2.217-1.49-4.552-0.265-6.506,1.08
			c-4.813,3.354-7.672,9.305-7.672,15.111c0,4.583,1.487,8.576,4.288,12.077c-2.771,3.328-4.288,7.646-4.288,11.904
			c0,4.554,1.487,8.547,4.259,12.021c-2.742,3.325-4.259,7.672-4.259,11.931c0,21.882,34.192,30.896,76.351,30.896
			s76.351-9.015,76.351-30.896c0-3.965-1.663-8.458-4.229-11.931c2.742-3.475,4.229-7.468,4.229-12.021
			C357.23,1050.785,355.568,1046.263,353.001,1042.789z M345.619,1049.266c0.905,1.402,1.459,3.006,1.459,4.961
			c0,2.712-0.963,5.222-2.801,7.467c-1.139,1.431-2.656,2.772-4.463,3.97c-10.708,7.321-32.356,11.174-58.934,11.174
			c-27.366,0-49.511-4.086-59.868-11.815c-1.283-0.935-2.392-1.954-3.296-3.034c-1.984-2.334-3.035-4.932-3.035-7.761
			c0-1.809,0.497-3.502,1.401-4.989c13.479,8.607,37.46,12.399,64.798,12.399C308.187,1061.637,332.14,1057.873,345.619,1049.266z
			 M280.879,1100.818c-38.19,0-66.199-7.992-66.199-22.64c0-1.809,0.497-3.501,1.401-4.989c13.479,8.607,37.46,12.399,64.798,12.399
			c27.308,0,51.26-3.763,64.739-12.371c0.905,1.402,1.459,2.978,1.459,4.961C347.078,1092.826,319.069,1100.818,280.879,1100.818z"
			/>
	</g>
	<g>
		<path d="M447.136,865.177h39.905c11.266,0,20.471,0.642,27.621,1.918c7.147,1.28,13.466,3.339,18.958,6.177
			c8.897,4.735,15.977,11.813,21.23,21.232c5.255,9.422,7.882,19.907,7.882,31.454c0,13.73-4.451,25.563-13.35,35.504
			c-8.899,9.94-20.686,16.144-35.36,18.605l63.479,86.058l-29.396,12.496l-69.727-101.251v95.713l-31.242,2.556V865.177z
			 M478.378,892.729v66.035h11.218c13.35,0,23.668-2.983,30.959-8.947c7.29-5.962,10.935-14.294,10.935-24.993
			c0-10.604-3.478-18.604-10.438-24c-6.958-5.397-17.208-8.095-30.745-8.095H478.378z"/>
		<path d="M701.153,991.001l-73.845,47.714c2.745,3.978,6.011,6.912,9.798,8.804c3.786,1.894,8.188,2.84,13.207,2.84
			c5.87,0,11.646-1.37,17.326-4.117c5.681-2.745,11.027-6.769,16.047-12.07l9.94,23.43c-5.776,5.964-12.521,10.58-20.237,13.848
			c-7.717,3.265-15.692,4.896-23.929,4.896c-15.716,0-29.019-5.843-39.905-17.535c-10.888-11.693-16.332-26.009-16.332-42.959
			c0-16.474,5.515-30.295,16.545-41.467c11.028-11.172,24.542-16.758,40.543-16.758c10.226,0,19.786,2.91,28.687,8.734
			C687.897,972.183,695.282,980.396,701.153,991.001z M668.065,987.308c-2.747-2.177-5.635-3.787-8.664-4.829
			c-3.029-1.04-6.248-1.563-9.655-1.563c-8.713,0-16.072,2.98-22.084,8.948c-6.013,5.962-9.017,13.253-9.017,21.87
			c0,1.324,0.071,2.649,0.213,3.974c0.142,1.328,0.355,2.797,0.639,4.403L668.065,987.308z"/>
		<path d="M786.463,860.208v29.68c-9.563,1.61-16.26,5.043-20.094,10.297c-3.834,5.252-5.752,13.939-5.752,26.058v34.223h23.291
			v27.125h-23.291v85.491l-28.259,2.556v-88.047h-12.213l5.823-27.125h6.39v-34.79c0-20.545,4.211-35.906,12.639-46.085
			C753.422,869.416,767.243,862.955,786.463,860.208z"/>
		<path d="M913.523,991.001l-73.845,47.714c2.745,3.978,6.011,6.912,9.797,8.804c3.787,1.894,8.188,2.84,13.208,2.84
			c5.869,0,11.646-1.37,17.326-4.117c5.681-2.745,11.027-6.769,16.047-12.07l9.94,23.43c-5.776,5.964-12.521,10.58-20.238,13.848
			c-7.717,3.265-15.691,4.896-23.928,4.896c-15.716,0-29.019-5.843-39.905-17.535c-10.888-11.693-16.331-26.009-16.331-42.959
			c0-16.474,5.515-30.295,16.544-41.467c11.028-11.172,24.542-16.758,40.544-16.758c10.225,0,19.785,2.91,28.687,8.734
			C900.268,972.183,907.652,980.396,913.523,991.001z M880.435,987.308c-2.746-2.177-5.634-3.787-8.662-4.829
			c-3.031-1.04-6.249-1.563-9.657-1.563c-8.712,0-16.071,2.98-22.083,8.948c-6.013,5.962-9.018,13.253-9.018,21.87
			c0,1.324,0.072,2.649,0.214,3.974c0.141,1.328,0.355,2.797,0.638,4.403L880.435,987.308z"/>
		<path d="M1000.254,960.185v27.69c-11.645,0.19-19.647,2.368-24,6.534c-4.356,4.165-6.533,11.977-6.533,23.43v55.243l-28.26,2.556
			V962.313l28.26-2.982v14.627c3.597-4.637,7.905-8.095,12.924-10.366C987.663,961.318,993.531,960.185,1000.254,960.185z"/>
		<path d="M1092.947,960.185v27.69c-11.644,0.19-19.646,2.368-24,6.534c-4.355,4.165-6.532,11.977-6.532,23.43v55.243l-28.261,2.556
			V962.313l28.261-2.982v14.627c3.597-4.637,7.904-8.095,12.923-10.366C1080.355,961.318,1086.225,960.185,1092.947,960.185z"/>
		<path d="M1220.576,991.001l-73.846,47.714c2.745,3.978,6.012,6.912,9.799,8.804c3.785,1.894,8.187,2.84,13.207,2.84
			c5.869,0,11.646-1.37,17.325-4.117c5.682-2.745,11.027-6.769,16.049-12.07l9.939,23.43c-5.776,5.964-12.521,10.58-20.237,13.848
			c-7.717,3.265-15.692,4.896-23.929,4.896c-15.715,0-29.018-5.843-39.905-17.535c-10.888-11.693-16.331-26.009-16.331-42.959
			c0-16.474,5.515-30.295,16.546-41.467c11.027-11.172,24.541-16.758,40.543-16.758c10.227,0,19.785,2.91,28.687,8.734
			C1207.321,972.183,1214.704,980.396,1220.576,991.001z M1187.487,987.308c-2.745-2.177-5.634-3.787-8.662-4.829
			c-3.03-1.04-6.249-1.563-9.657-1.563c-8.712,0-16.071,2.98-22.083,8.948c-6.012,5.962-9.018,13.253-9.018,21.87
			c0,1.324,0.071,2.649,0.214,3.974c0.141,1.328,0.354,2.797,0.639,4.403L1187.487,987.308z"/>
		<path d="M1360.562,861.628v210.887l-28.545,2.555v-12.78c-4.356,4.735-9.444,8.308-15.267,10.721
			c-5.823,2.414-12.237,3.622-19.241,3.622c-15.719,0-28.971-5.702-39.765-17.112c-10.793-11.408-16.189-25.394-16.189-41.965
			c0-16.474,5.611-30.483,16.829-42.033c11.219-11.55,24.828-17.327,40.828-17.327c6.626,0,12.614,1.089,17.965,3.266
			c5.348,2.18,10.296,5.539,14.84,10.083V864.61L1360.562,861.628z M1301.484,984.61c-8.711,0-16.118,3.243-22.225,9.728
			c-6.107,6.484-9.16,14.318-9.16,23.501c0,9.281,3.027,17.112,9.088,23.504c6.058,6.391,13.492,9.584,22.297,9.584
			c8.709,0,16.068-3.193,22.082-9.584c6.012-6.392,9.018-14.223,9.018-23.504c0-9.183-3.006-17.017-9.018-23.501
			C1317.553,987.853,1310.193,984.61,1301.484,984.61z"/>
		<path d="M1410.992,865.177h52.118c22.911,0,40.565,4.665,52.97,13.99c12.401,9.326,18.604,22.604,18.604,39.834
			c0,11.359-2.89,21.112-8.663,29.254c-5.775,8.143-14.249,14.343-25.42,18.602c10.981,3.408,19.55,9.325,25.704,17.753
			c6.152,8.425,9.229,18.602,9.229,30.531c0,18.178-6.177,32.378-18.531,42.604s-29.563,15.337-51.62,15.337h-54.391V865.177z
			 M1442.234,891.31v64.331h15.336c15.527,0,26.933-2.722,34.228-8.167c7.286-5.445,10.934-13.895,10.934-25.348
			c0-10.319-3.361-18.038-10.083-23.149c-6.725-5.111-16.758-7.667-30.106-7.667H1442.234z M1442.234,979.78v67.172h20.592
			c13.156,0,23.147-2.747,29.964-8.236c6.816-5.49,10.226-13.539,10.226-24.142c0-11.076-3.765-19.645-11.291-25.705
			c-7.526-6.056-18.247-9.089-32.165-9.089H1442.234z"/>
		<path d="M1648.225,972.061l-26.958,59.981l-27.103-59.981h-31.072l42.128,92.631l-27.249,56.948l28.533,4.113l71.714-153.692
			H1648.225z"/>
		<g>
			<path d="M1743.392,889.369h-20.466v66.727h-16.799v-66.727h-20.518v-16.59h57.782V889.369z"/>
			<path d="M1838.203,870.713v85.383h-16.745v-36.284l-23.981,34.888h-0.104l-24.032-34.888v36.284h-16.748v-85.383h0.93
				l39.902,55.042l39.849-55.042H1838.203z"/>
		</g>
	</g>
</g>
</svg>
