<?xml version="1.0" encoding="utf-8"?>
<!-- Generator: Adobe Illustrator 16.0.0, SVG Export Plug-In . SVG Version: 6.00 Build 0)  -->
<!DOCTYPE svg PUBLIC "-//W3C//DTD SVG 1.1//EN" "http://www.w3.org/Graphics/SVG/1.1/DTD/svg11.dtd">
<svg version="1.1" id="Layer_1" xmlns="http://www.w3.org/2000/svg" xmlns:xlink="http://www.w3.org/1999/xlink" x="0px" y="0px"
	 width="2000px" height="2000px" viewBox="0 0 2000 2000" enable-background="new 0 0 2000 2000" xml:space="preserve">
<g>
	<path fill="#244F5B" d="M1092.604,422.357c0,0-9.25-13.891-18.515,41.658c-14.623,87.701-29.153,336.103-170.755,306.091
		c-87.566-18.563-121.57-110.08-88.468-185.734c0,0,129.012-285.653,129.605-286.999c-186.806-11.177-300.2,120.276-321.377,299.463
		c-12.625,106.821,9.313,222.825,51.868,320.91c14.998,34.585,160.004,268.027,209.338,240.609
		C884.424,1158.29,1296.24,917.572,1092.604,422.357z M872.86,1116.345c-41.07-25.503-142.048-174.527-159.677-215.165
		c-42.006-96.83-59.762-205.973-48.713-299.454c17.412-147.34,96.3-241.629,214.286-260.048
		c-38.043,84.238-101.852,225.554-101.852,225.554c-22.449,51.272-21.196,109.898,3.133,157.241
		c23.083,44.93,63.802,75.608,114.658,86.385c10.661,2.266,21.231,3.407,31.411,3.407c111.704,0,152.397-124.264,171.841-229.551
		C1157.121,908.835,924.929,1082.016,872.86,1116.345z"/>
	<path fill="#C32127" d="M1266.936,1295.453c13.052-16.529,20.129-35.531,20.129-57.211c0-26.802-15.834-58.596-37.354-74.285
		c-4.585-3.343-9.447-5.276-14.3-6.252c-23.334-4.449-45.556,15.558-19.45,37.634c13.059,10.961,22.778,22.358,22.778,40.542
		c0,12.913-4.583,24.859-13.331,35.55c-5.42,6.806-12.641,13.192-21.245,18.882c-50.97,34.861-154.008,53.194-280.514,53.194
		c-130.258,0-235.664-19.448-284.958-56.234c-6.107-4.453-11.246-9.306-15.555-14.308c-9.578-11.109-14.579-23.464-14.579-37.084
		c0-10.97,3.753-21.103,10.695-29.581c10.831-13.191,34.997-27.211,8.469-45.263c-10.552-7.093-21.666-1.26-30.969,5.142
		c-22.911,15.96-36.519,44.286-36.519,71.925c0,21.818,7.077,40.82,20.41,57.489c-13.189,15.841-20.41,36.386-20.41,56.662
		c0,21.67,7.077,40.681,20.273,57.22c-13.052,15.822-20.273,36.517-20.273,56.783c0,104.157,162.749,147.061,363.416,147.061
		c200.667,0,363.416-42.903,363.416-147.061c0-18.872-7.913-40.254-20.129-56.783c13.052-16.539,20.129-35.55,20.129-57.22
		C1287.064,1333.513,1279.151,1311.991,1266.936,1295.453z M1231.795,1326.28c4.307,6.675,6.944,14.308,6.944,23.613
		c0,12.913-4.583,24.858-13.331,35.54c-5.42,6.814-12.641,13.201-21.245,18.9c-50.97,34.843-154.008,53.185-280.514,53.185
		c-130.258,0-235.664-19.448-284.958-56.243c-6.107-4.444-11.383-9.297-15.69-14.438c-9.443-11.109-14.444-23.474-14.444-36.944
		c0-8.608,2.363-16.669,6.667-23.743c64.158,40.97,178.302,59.014,308.425,59.014
		C1053.628,1385.164,1167.638,1367.25,1231.795,1326.28z M923.649,1571.661c-181.777,0-315.093-38.041-315.093-107.756
		c0-8.608,2.363-16.669,6.667-23.752c64.158,40.97,178.302,59.022,308.425,59.022c129.979,0,243.989-17.914,308.146-58.884
		c4.307,6.675,6.944,14.168,6.944,23.613C1238.739,1533.62,1105.425,1571.661,923.649,1571.661z"/>
</g>
</svg>
