<svg width="79" height="76" viewBox="0 0 79 76" fill="none" xmlns="http://www.w3.org/2000/svg">
<path d="M43.1579 16.0495C43.1579 16.0495 42.7925 15.5216 42.4265 17.6325C41.8489 20.9651 41.275 30.4044 35.6817 29.2639C32.2228 28.5586 30.8797 25.0809 32.1872 22.2061C32.1872 22.2061 37.2832 11.3512 37.3066 11.3001C29.9278 10.8754 25.4487 15.8706 24.6122 22.6797C24.1135 26.7389 24.9801 31.147 26.661 34.8743C27.2534 36.1885 32.9812 45.0593 34.9299 44.0174C34.9348 44.0149 51.2015 34.8677 43.1579 16.0495ZM34.478 42.421C32.8557 41.4519 28.8671 35.789 28.1707 34.2448C26.5115 30.5652 25.8101 26.4178 26.2466 22.8655C26.9343 17.2666 30.0504 13.6836 34.7109 12.9837C33.2082 16.1847 30.6877 21.5547 30.6877 21.5547C29.801 23.5031 29.8505 25.7309 30.8115 27.5299C31.7233 29.2372 33.3317 30.403 35.3405 30.8125C35.7616 30.8986 36.1791 30.942 36.5812 30.942C40.9935 30.942 42.6009 26.22 43.3689 22.219C45.7063 34.5357 36.5347 41.1165 34.478 42.421Z" fill="#244F5B"/>
<path d="M50.044 49.2269C50.5595 48.5988 50.8391 47.8767 50.8391 47.0529C50.8391 46.0344 50.2136 44.8263 49.3636 44.2301C49.1825 44.103 48.9904 44.0296 48.7987 43.9925C47.877 43.8234 46.9993 44.5837 48.0305 45.4226C48.5463 45.8391 48.9302 46.2722 48.9302 46.9632C48.9302 47.4539 48.7492 47.9078 48.4036 48.3141C48.1895 48.5727 47.9043 48.8154 47.5644 49.0316C45.5511 50.3563 41.4811 51.053 36.4841 51.053C31.339 51.053 27.1754 50.314 25.2283 48.9161C24.9871 48.7469 24.7841 48.5625 24.6139 48.3724C24.2355 47.9502 24.038 47.4807 24.038 46.9632C24.038 46.5463 24.1863 46.1613 24.4605 45.8391C24.8883 45.3379 25.8428 44.8051 24.795 44.1191C24.3782 43.8496 23.9392 44.0712 23.5717 44.3145C22.6667 44.921 22.1292 45.9974 22.1292 47.0477C22.1292 47.8767 22.4088 48.5988 22.9354 49.2322C22.4144 49.8342 22.1292 50.6149 22.1292 51.3854C22.1292 52.2089 22.4088 52.9313 22.93 53.5598C22.4144 54.161 22.1292 54.9474 22.1292 55.7175C22.1292 59.6755 28.5578 61.3058 36.4841 61.3058C44.4105 61.3058 50.8391 59.6755 50.8391 55.7175C50.8391 55.0004 50.5265 54.1879 50.044 53.5598C50.5595 52.9313 50.8391 52.2089 50.8391 51.3854C50.839 50.6732 50.5265 49.8554 50.044 49.2269ZM48.6559 50.3984C48.826 50.652 48.9302 50.9421 48.9302 51.2956C48.9302 51.7863 48.7492 52.2402 48.4036 52.6462C48.1895 52.9051 47.9043 53.1478 47.5644 53.3644C45.5511 54.6884 41.4811 55.3854 36.4841 55.3854C31.339 55.3854 27.1754 54.6464 25.2283 53.2482C24.9871 53.0793 24.7787 52.8949 24.6085 52.6995C24.2355 52.2774 24.038 51.8075 24.038 51.2956C24.038 50.9685 24.1313 50.6622 24.3014 50.3934C26.8356 51.9503 31.3443 52.6359 36.4841 52.6359C41.6183 52.6359 46.1217 51.9552 48.6559 50.3984ZM36.4841 59.7228C29.304 59.7228 24.038 58.2773 24.038 55.6281C24.038 55.301 24.1313 54.9947 24.3013 54.7255C26.8356 56.2824 31.3442 56.9684 36.4841 56.9684C41.6183 56.9684 46.1217 56.2876 48.6559 54.7308C48.826 54.9844 48.9302 55.2692 48.9302 55.6281C48.9302 58.2773 43.6643 59.7228 36.4841 59.7228Z" fill="#C32127"/>
</svg>
