<svg width="373" height="70" viewBox="0 0 373 70" fill="none" xmlns="http://www.w3.org/2000/svg">
<path d="M73.5948 59.072C73.5948 58.1013 73.8048 57.238 74.2248 56.482C74.6448 55.7167 75.2281 55.124 75.9748 54.704C76.7308 54.2747 77.5848 54.06 78.5368 54.06C79.7035 54.06 80.7021 54.368 81.5328 54.984C82.3635 55.6 82.9188 56.44 83.1988 57.504H80.5668C80.3708 57.0933 80.0908 56.7807 79.7268 56.566C79.3721 56.3513 78.9661 56.244 78.5088 56.244C77.7715 56.244 77.1741 56.5007 76.7168 57.014C76.2595 57.5273 76.0308 58.2133 76.0308 59.072C76.0308 59.9307 76.2595 60.6167 76.7168 61.13C77.1741 61.6433 77.7715 61.9 78.5088 61.9C78.9661 61.9 79.3721 61.7927 79.7268 61.578C80.0908 61.3633 80.3708 61.0507 80.5668 60.64H83.1988C82.9188 61.704 82.3635 62.544 81.5328 63.16C80.7021 63.7667 79.7035 64.07 78.5368 64.07C77.5848 64.07 76.7308 63.86 75.9748 63.44C75.2281 63.0107 74.6448 62.418 74.2248 61.662C73.8048 60.906 73.5948 60.0427 73.5948 59.072ZM89.3129 64.098C88.3889 64.098 87.5395 63.8833 86.7649 63.454C85.9995 63.0247 85.3882 62.4273 84.9309 61.662C84.4829 60.8873 84.2589 60.0193 84.2589 59.058C84.2589 58.0967 84.4829 57.2333 84.9309 56.468C85.3882 55.7027 85.9995 55.1053 86.7649 54.676C87.5395 54.2467 88.3889 54.032 89.3129 54.032C90.2369 54.032 91.0815 54.2467 91.8469 54.676C92.6215 55.1053 93.2282 55.7027 93.6669 56.468C94.1149 57.2333 94.3389 58.0967 94.3389 59.058C94.3389 60.0193 94.1149 60.8873 93.6669 61.662C93.2189 62.4273 92.6122 63.0247 91.8469 63.454C91.0815 63.8833 90.2369 64.098 89.3129 64.098ZM89.3129 61.914C90.0969 61.914 90.7222 61.6527 91.1889 61.13C91.6649 60.6073 91.9029 59.9167 91.9029 59.058C91.9029 58.19 91.6649 57.4993 91.1889 56.986C90.7222 56.4633 90.0969 56.202 89.3129 56.202C88.5195 56.202 87.8849 56.4587 87.4089 56.972C86.9422 57.4853 86.7089 58.1807 86.7089 59.058C86.7089 59.926 86.9422 60.6213 87.4089 61.144C87.8849 61.6573 88.5195 61.914 89.3129 61.914ZM106.801 54.172V64H104.407V58.106L102.209 64H100.277L98.0647 58.092V64H95.6707V54.172H98.4987L101.257 60.976L103.987 54.172H106.801ZM119.652 54.172V64H117.258V58.106L115.06 64H113.128L110.916 58.092V64H108.522V54.172H111.35L114.108 60.976L116.838 54.172H119.652ZM123.726 54.172V60.052C123.726 60.64 123.871 61.0927 124.16 61.41C124.449 61.7273 124.874 61.886 125.434 61.886C125.994 61.886 126.423 61.7273 126.722 61.41C127.021 61.0927 127.17 60.64 127.17 60.052V54.172H129.564V60.038C129.564 60.9153 129.377 61.6573 129.004 62.264C128.631 62.8707 128.127 63.328 127.492 63.636C126.867 63.944 126.167 64.098 125.392 64.098C124.617 64.098 123.922 63.9487 123.306 63.65C122.699 63.342 122.219 62.8847 121.864 62.278C121.509 61.662 121.332 60.9153 121.332 60.038V54.172H123.726ZM140.037 64H137.643L133.639 57.938V64H131.245V54.172H133.639L137.643 60.262V54.172H140.037V64ZM144.166 54.172V64H141.772V54.172H144.166ZM152.971 54.172V56.09H150.367V64H147.973V56.09H145.369V54.172H152.971ZM162.601 54.172L159.199 60.752V64H156.805V60.752L153.403 54.172H156.119L158.023 58.288L159.913 54.172H162.601ZM175.758 54.172L172.272 64H169.276L165.79 54.172H168.338L170.774 61.592L173.224 54.172H175.758ZM179.153 56.09V58.078H182.359V59.926H179.153V62.082H182.779V64H176.759V54.172H182.779V56.09H179.153ZM191.403 54.172V56.09H188.799V64H186.405V56.09H183.801V54.172H191.403ZM199.674 54.172V56.09H197.07V64H194.676V56.09H192.072V54.172H199.674ZM203.27 56.09V58.078H206.476V59.926H203.27V62.082H206.896V64H200.876V54.172H206.896V56.09H203.27ZM212.132 54.172C213.168 54.172 214.073 54.3773 214.848 54.788C215.623 55.1987 216.22 55.7773 216.64 56.524C217.069 57.2613 217.284 58.1153 217.284 59.086C217.284 60.0473 217.069 60.9013 216.64 61.648C216.22 62.3947 215.618 62.9733 214.834 63.384C214.059 63.7947 213.159 64 212.132 64H208.45V54.172H212.132ZM211.978 61.928C212.883 61.928 213.588 61.6807 214.092 61.186C214.596 60.6913 214.848 59.9913 214.848 59.086C214.848 58.1807 214.596 57.476 214.092 56.972C213.588 56.468 212.883 56.216 211.978 56.216H210.844V61.928H211.978ZM227.987 54.172V56.09H223.983V58.162H226.979V60.024H223.983V64H221.589V54.172H227.987ZM231.639 54.172V64H229.245V54.172H231.639ZM242.166 64H239.772L235.768 57.938V64H233.374V54.172H235.768L239.772 60.262V54.172H242.166V64ZM250.019 62.264H246.351L245.763 64H243.257L246.813 54.172H249.585L253.141 64H250.607L250.019 62.264ZM249.403 60.416L248.185 56.818L246.981 60.416H249.403ZM263.015 64H260.621L256.617 57.938V64H254.223V54.172H256.617L260.621 60.262V54.172H263.015V64ZM264.345 59.072C264.345 58.1013 264.555 57.238 264.975 56.482C265.395 55.7167 265.978 55.124 266.725 54.704C267.481 54.2747 268.335 54.06 269.287 54.06C270.453 54.06 271.452 54.368 272.283 54.984C273.113 55.6 273.669 56.44 273.949 57.504H271.317C271.121 57.0933 270.841 56.7807 270.477 56.566C270.122 56.3513 269.716 56.244 269.259 56.244C268.521 56.244 267.924 56.5007 267.467 57.014C267.009 57.5273 266.781 58.2133 266.781 59.072C266.781 59.9307 267.009 60.6167 267.467 61.13C267.924 61.6433 268.521 61.9 269.259 61.9C269.716 61.9 270.122 61.7927 270.477 61.578C270.841 61.3633 271.121 61.0507 271.317 60.64H273.949C273.669 61.704 273.113 62.544 272.283 63.16C271.452 63.7667 270.453 64.07 269.287 64.07C268.335 64.07 267.481 63.86 266.725 63.44C265.978 63.0107 265.395 62.418 264.975 61.662C264.555 60.906 264.345 60.0427 264.345 59.072ZM277.809 54.172V64H275.415V54.172H277.809ZM288.336 64H285.942L281.938 57.938V64H279.544V54.172H281.938L285.942 60.262V54.172H288.336V64ZM296.595 57.28C296.418 56.9533 296.161 56.706 295.825 56.538C295.498 56.3607 295.111 56.272 294.663 56.272C293.888 56.272 293.268 56.5287 292.801 57.042C292.334 57.546 292.101 58.2227 292.101 59.072C292.101 59.9773 292.344 60.6867 292.829 61.2C293.324 61.704 294 61.956 294.859 61.956C295.447 61.956 295.942 61.8067 296.343 61.508C296.754 61.2093 297.052 60.78 297.239 60.22H294.201V58.456H299.409V60.682C299.232 61.2793 298.928 61.8347 298.499 62.348C298.079 62.8613 297.542 63.2767 296.889 63.594C296.236 63.9113 295.498 64.07 294.677 64.07C293.706 64.07 292.838 63.86 292.073 63.44C291.317 63.0107 290.724 62.418 290.295 61.662C289.875 60.906 289.665 60.0427 289.665 59.072C289.665 58.1013 289.875 57.238 290.295 56.482C290.724 55.7167 291.317 55.124 292.073 54.704C292.829 54.2747 293.692 54.06 294.663 54.06C295.839 54.06 296.828 54.3447 297.631 54.914C298.443 55.4833 298.98 56.272 299.241 57.28H296.595Z" fill="black"/>
<path d="M53.9228 4.41751C53.9228 4.41751 53.5767 3.92917 53.2299 5.88219C52.6827 8.96568 52.1389 17.6995 46.8396 16.6444C43.5626 15.9917 42.2901 12.774 43.529 10.1141C43.529 10.1141 48.3569 0.0704913 48.3792 0.0232976C41.3882 -0.369649 37.1447 4.25217 36.3523 10.5524C35.8799 14.3081 36.7008 18.3869 38.2933 21.8355C38.8546 23.0515 44.2812 31.2594 46.1273 30.2953C46.1323 30.2929 61.5436 21.8292 53.9228 4.41751ZM45.6994 28.818C44.1626 27.9213 40.3836 22.6817 39.7238 21.2528C38.1519 17.8483 37.4873 14.0109 37.9009 10.7241C38.5525 5.54364 41.5047 2.22835 45.9201 1.58086C44.4964 4.54269 42.1086 9.51126 42.1086 9.51126C41.2685 11.314 41.3154 13.3753 42.2258 15.0398C43.0897 16.6194 44.6134 17.6982 46.5167 18.0771C46.9157 18.1568 47.3111 18.1969 47.6921 18.1969C51.8724 18.1969 53.3954 13.8278 54.123 10.1259C56.3373 21.5221 47.6479 27.6111 45.6994 28.818Z" fill="#244F5B"/>
<path d="M60.4467 35.1155C60.9352 34.5343 61.2 33.866 61.2 33.1037C61.2 32.1615 60.6074 31.0435 59.8021 30.492C59.6306 30.3745 59.4485 30.3066 59.267 30.2723C58.3938 30.1158 57.5622 30.8194 58.5392 31.5954C59.028 31.981 59.3917 32.3816 59.3917 33.0211C59.3917 33.4749 59.2202 33.8952 58.8928 34.2709C58.6899 34.5103 58.4197 34.7348 58.0978 34.9349C56.1904 36.1605 52.3343 36.8053 47.6001 36.8053C42.7255 36.8053 38.7809 36.1215 36.9361 34.828C36.7075 34.6714 36.5151 34.5008 36.3539 34.3249C35.9955 33.9343 35.8083 33.5 35.8083 33.0212C35.8083 32.6353 35.9489 32.2792 36.2086 31.9811C36.6138 31.5172 37.5183 31.0242 36.5255 30.3896C36.1306 30.1402 35.7146 30.3453 35.3666 30.5703C34.5093 31.1317 34 32.1276 34 33.0992C34 33.8662 34.2649 34.5345 34.7638 35.1204C34.2702 35.6773 34 36.4 34 37.1125C34 37.8747 34.2649 38.5429 34.7586 39.1243C34.2702 39.6808 34 40.4082 34 41.121C34 44.783 40.0905 46.2915 47.6001 46.2915C55.1097 46.2915 61.2002 44.7829 61.2002 41.121C61.2002 40.4574 60.904 39.7055 60.4469 39.1243C60.9354 38.5428 61.2002 37.8745 61.2002 37.1125C61.2 36.4537 60.904 35.6969 60.4467 35.1155ZM59.1318 36.1995C59.293 36.4341 59.3917 36.7025 59.3917 37.0297C59.3917 37.4836 59.2202 37.9036 58.8928 38.2793C58.6899 38.5188 58.4197 38.7432 58.0978 38.9437C56.1904 40.1689 52.3343 40.8137 47.6001 40.8137C42.7255 40.8137 38.7809 40.1299 36.9361 38.8364C36.7075 38.68 36.51 38.5094 36.3489 38.3287C35.9955 37.9381 35.8083 37.5033 35.8083 37.0299C35.8083 36.7271 35.8969 36.4438 36.0579 36.1949C38.4589 37.6354 42.7305 38.2699 47.6001 38.2699C52.4642 38.2698 56.7309 37.6399 59.1318 36.1995ZM47.5999 44.8269C40.7973 44.8269 35.8082 43.4894 35.8082 41.038C35.8082 40.7352 35.8967 40.4521 36.0577 40.2031C38.4587 41.6435 42.7303 42.2781 47.5999 42.2781C52.4642 42.2781 56.7307 41.6483 59.1316 40.2078C59.2928 40.4424 59.3915 40.7061 59.3915 41.038C59.3917 43.4894 54.4026 44.8269 47.5999 44.8269Z" fill="#C32127"/>
<path d="M77.2148 5.39206H84.323C86.3297 5.39206 87.9694 5.4995 89.243 5.71304C90.5161 5.92725 91.6416 6.27183 92.6199 6.74678C94.2047 7.5392 95.4658 8.72374 96.4015 10.3C97.3376 11.8769 97.8055 13.6316 97.8055 15.564C97.8055 17.8618 97.0127 19.842 95.4275 21.5057C93.8424 23.1692 91.7428 24.2075 89.129 24.6193L100.436 39.0215L95.2001 41.1127L82.7799 24.168V40.1859L77.2148 40.6137V5.39206ZM82.7799 10.003V21.0542H84.7781C87.1561 21.0542 88.994 20.555 90.2927 19.5569C91.5912 18.5591 92.2405 17.1647 92.2405 15.3742C92.2405 13.5996 91.621 12.2608 90.3812 11.3577C89.1418 10.4545 87.316 10.003 84.9047 10.003H82.7799Z" fill="black"/>
<path d="M122.462 26.4496L109.308 34.4348C109.797 35.1005 110.379 35.5915 111.054 35.9081C111.728 36.2251 112.512 36.3834 113.406 36.3834C114.452 36.3834 115.48 36.1541 116.492 35.6944C117.504 35.235 118.456 34.5616 119.351 33.6745L121.121 37.5956C120.092 38.5937 118.891 39.3662 117.516 39.9131C116.142 40.4595 114.721 40.7324 113.254 40.7324C110.455 40.7324 108.085 39.7546 106.146 37.7979C104.207 35.841 103.237 33.4452 103.237 30.6085C103.237 27.8516 104.219 25.5386 106.184 23.6689C108.148 21.7992 110.555 20.8644 113.406 20.8644C115.227 20.8644 116.93 21.3514 118.516 22.326C120.101 23.3004 121.416 24.6749 122.462 26.4496ZM116.568 25.8316C116.079 25.4673 115.564 25.1978 115.025 25.0235C114.485 24.8494 113.912 24.7619 113.305 24.7619C111.753 24.7619 110.442 25.2606 109.371 26.2594C108.3 27.2571 107.765 28.4773 107.765 29.9194C107.765 30.141 107.778 30.3627 107.803 30.5845C107.828 30.8067 107.866 31.0525 107.917 31.3213L116.568 25.8316Z" fill="black"/>
<path d="M137.658 4.56076V9.52782C135.955 9.79726 134.762 10.3718 134.079 11.2511C133.396 12.13 133.054 13.5838 133.054 15.612V21.3393H137.203V25.8788H133.054V40.186L128.021 40.6138V25.8788H125.845L126.882 21.3393H128.021V15.5171C128.021 12.0788 128.771 9.50807 130.272 7.80458C131.773 6.10175 134.235 5.02048 137.658 4.56076Z" fill="black"/>
<path d="M160.291 26.4496L147.137 34.4348C147.626 35.1005 148.208 35.5915 148.882 35.9081C149.557 36.2251 150.341 36.3834 151.235 36.3834C152.28 36.3834 153.309 36.1541 154.321 35.6944C155.333 35.235 156.285 34.5616 157.18 33.6745L158.95 37.5956C157.921 38.5937 156.72 39.3662 155.345 39.9131C153.971 40.4595 152.55 40.7324 151.083 40.7324C148.284 40.7324 145.914 39.7546 143.975 37.7979C142.035 35.841 141.066 33.4452 141.066 30.6085C141.066 27.8516 142.048 25.5386 144.013 23.6689C145.977 21.7992 148.384 20.8644 151.235 20.8644C153.056 20.8644 154.759 21.3514 156.345 22.326C157.93 23.3004 159.245 24.6749 160.291 26.4496ZM154.397 25.8316C153.908 25.4673 153.393 25.1978 152.854 25.0235C152.314 24.8494 151.741 24.7619 151.134 24.7619C149.582 24.7619 148.271 25.2606 147.2 26.2594C146.129 27.2571 145.594 28.4773 145.594 29.9194C145.594 30.141 145.607 30.3627 145.632 30.5845C145.657 30.8067 145.695 31.0525 145.746 31.3213L154.397 25.8316Z" fill="black"/>
<path d="M175.739 21.2924V25.9264C173.665 25.9582 172.24 26.3227 171.464 27.0199C170.688 27.7169 170.301 29.0243 170.301 30.941V40.1861L165.267 40.6139V21.6485L170.301 21.1495V23.5974C170.941 22.8213 171.709 22.2426 172.603 21.8626C173.497 21.482 174.542 21.2924 175.739 21.2924Z" fill="black"/>
<path d="M192.251 21.2924V25.9264C190.177 25.9582 188.751 26.3227 187.976 27.0199C187.2 27.7169 186.812 29.0243 186.812 30.941V40.1861L181.778 40.6139V21.6485L186.812 21.1495V23.5974C187.453 22.8213 188.22 22.2426 189.114 21.8626C190.008 21.482 191.053 21.2924 192.251 21.2924Z" fill="black"/>
<path d="M214.985 26.4496L201.831 34.4348C202.32 35.1005 202.902 35.5915 203.576 35.9081C204.251 36.2251 205.035 36.3834 205.929 36.3834C206.974 36.3834 208.003 36.1541 209.015 35.6944C210.027 35.235 210.979 34.5616 211.874 33.6745L213.644 37.5956C212.615 38.5937 211.414 39.3662 210.039 39.9131C208.665 40.4595 207.244 40.7324 205.777 40.7324C202.978 40.7324 200.608 39.7546 198.669 37.7979C196.729 35.841 195.76 33.4452 195.76 30.6085C195.76 27.8516 196.742 25.5386 198.707 23.6689C200.671 21.7992 203.078 20.8644 205.929 20.8644C207.751 20.8644 209.453 21.3514 211.039 22.326C212.624 23.3004 213.939 24.6749 214.985 26.4496ZM209.091 25.8316C208.602 25.4673 208.087 25.1978 207.548 25.0235C207.008 24.8494 206.435 24.7619 205.828 24.7619C204.276 24.7619 202.965 25.2606 201.894 26.2594C200.823 27.2571 200.288 28.4773 200.288 29.9194C200.288 30.141 200.3 30.3627 200.326 30.5845C200.351 30.8067 200.389 31.0525 200.44 31.3213L209.091 25.8316Z" fill="black"/>
<path d="M239.92 4.79849V40.0912L234.835 40.5188V38.38C234.059 39.1725 233.153 39.7704 232.116 40.1742C231.079 40.5782 229.936 40.7804 228.689 40.7804C225.889 40.7804 223.528 39.8261 221.605 37.9166C219.683 36.0075 218.722 33.6669 218.722 30.8936C218.722 28.1366 219.721 25.7922 221.719 23.8593C223.718 21.9263 226.142 20.9595 228.992 20.9595C230.172 20.9595 231.239 21.1418 232.192 21.5061C233.145 21.8709 234.026 22.4331 234.835 23.1935V5.29754L239.92 4.79849ZM229.397 25.38C227.845 25.38 226.526 25.9227 225.438 27.008C224.35 28.0931 223.806 29.4042 223.806 30.941C223.806 32.4942 224.345 33.8048 225.425 34.8745C226.504 35.944 227.828 36.4784 229.397 36.4784C230.948 36.4784 232.259 35.944 233.33 34.8745C234.401 33.8048 234.936 32.4942 234.936 30.941C234.936 29.4042 234.401 28.0931 233.33 27.008C232.259 25.9227 230.948 25.38 229.397 25.38Z" fill="black"/>
<path d="M248.903 5.39206H258.186C262.267 5.39206 265.412 6.17276 267.622 7.73334C269.831 9.29408 270.936 11.5162 270.936 14.3997C270.936 16.3007 270.421 17.9329 269.393 19.2955C268.364 20.6582 266.854 21.6958 264.865 22.4086C266.821 22.9789 268.347 23.9692 269.443 25.3796C270.539 26.7896 271.087 28.4927 271.087 30.4891C271.087 33.5313 269.987 35.9077 267.786 37.619C265.586 39.3304 262.52 40.1857 258.591 40.1857H248.903V5.39206ZM254.468 9.76551V20.5315H257.2C259.965 20.5315 261.997 20.076 263.296 19.1648C264.594 18.2535 265.244 16.8394 265.244 14.9227C265.244 13.1958 264.645 11.904 263.448 11.0486C262.25 10.1933 260.463 9.76551 258.085 9.76551H254.468ZM254.468 24.5713V35.8128H258.136C260.479 35.8128 262.259 35.3531 263.473 34.4345C264.687 33.5157 265.295 32.1687 265.295 30.3942C265.295 28.5406 264.624 27.1065 263.283 26.0924C261.943 25.0789 260.033 24.5713 257.554 24.5713H254.468Z" fill="black"/>
<path d="M291.16 23.2799L286.358 33.3179L281.531 23.2799H275.996L283.5 38.782L278.646 48.3125L283.729 49.0008L296.503 23.2799H291.16Z" fill="black"/>
<path d="M308.112 9.44123H304.467V20.6082H301.474V9.44123H297.82V6.66483H308.112V9.44123H308.112Z" fill="black"/>
<path d="M325 6.31967V20.6088H322.018V14.5366L317.746 20.3752H317.728L313.447 14.5366V20.6088H310.464V6.31967H310.629L317.737 15.5312L324.835 6.31967H325Z" fill="black"/>
</svg>
