<?xml version="1.0" standalone="no"?>
<!DOCTYPE svg PUBLIC "-//W3C//DTD SVG 20010904//EN"
 "http://www.w3.org/TR/2001/REC-SVG-20010904/DTD/svg10.dtd">
<svg version="1.0" xmlns="http://www.w3.org/2000/svg"
 width="174.000000pt" height="180.000000pt" viewBox="0 0 174.000000 180.000000"
 preserveAspectRatio="xMidYMid meet">

<g transform="translate(0.000000,180.000000) scale(0.100000,-0.100000)"
fill="#000000" stroke="none">
<path d="M301 1769 c-69 -12 -162 -61 -207 -112 -20 -22 -48 -65 -63 -96 l-26
-56 0 -605 0 -605 26 -56 c52 -110 151 -186 271 -208 75 -13 1051 -15 1132 -1
126 21 243 113 285 225 19 51 21 77 21 300 l0 245 -114 0 -114 0 -7 50 c-4 27
-10 52 -14 54 -6 4 -60 -235 -147 -659 -14 -66 -28 -127 -31 -135 -3 -8 -12
19 -19 60 -7 41 -46 263 -86 494 -41 241 -75 410 -79 400 -4 -11 -12 -62 -19
-114 -7 -52 -14 -107 -17 -122 l-5 -28 -94 0 -94 0 0 45 0 45 54 0 c50 0 54 2
59 28 3 15 29 197 58 404 29 208 54 376 56 375 2 -3 50 -271 153 -874 17 -94
30 -177 30 -184 0 -52 27 57 96 383 69 330 94 426 94 361 0 -10 21 -125 46
-255 l46 -238 75 0 74 0 -3 313 c-3 308 -3 313 -28 362 -31 63 -89 126 -146
160 -88 51 -134 55 -694 54 -283 -1 -539 -6 -569 -10z m464 -419 c40 -20 55
-35 75 -75 23 -46 25 -61 25 -190 0 -131 -2 -143 -25 -185 -18 -33 -38 -52
-75 -70 -48 -24 -58 -25 -277 -28 l-228 -4 0 -189 0 -189 -55 0 -55 0 0 481 0
480 283 -3 c278 -3 283 -3 332 -28z"/>
<path d="M260 1090 l0 -202 208 4 c242 4 259 9 287 83 14 35 17 65 13 138 -3
50 -11 104 -18 118 -22 48 -48 53 -277 57 l-213 3 0 -201z"/>
</g>
</svg>
